HIERARCHY
ROOT Hips
{
	OFFSET 0.00000 0.00000 0.00000
	CHANNELS 6 Xposition Yposition Zposition Zrotation Yrotation Xrotation 
	JOINT LHipJoint
	{
		OFFSET 0 0 0
		CHANNELS 3 Zrotation Yrotation Xrotation
		JOINT LeftUpLeg
		{
			OFFSET 1.62964 -1.40469 0.78906
			CHANNELS 3 Zrotation Yrotation Xrotation
			JOINT LeftLeg
			{
				OFFSET 2.29640 -6.30932 0.00000
				CHANNELS 3 Zrotation Yrotation Xrotation
				JOINT LeftFoot
				{
					OFFSET 2.29451 -6.30412 0.00000
					CHANNELS 3 Zrotation Yrotation Xrotation
					JOINT LeftToeBase
					{
						OFFSET 0.03611 -0.09921 1.56387
						CHANNELS 3 Zrotation Yrotation Xrotation
						End Site
						{
							OFFSET 0.00000 -0.00000 0.80291
						}
					}
				}
			}
		}
	}
	JOINT RHipJoint
	{
		OFFSET 0 0 0
		CHANNELS 3 Zrotation Yrotation Xrotation
		JOINT RightUpLeg
		{
			OFFSET -1.73712 -1.40469 0.78906
			CHANNELS 3 Zrotation Yrotation Xrotation
			JOINT RightLeg
			{
				OFFSET -2.28137 -6.26801 0.00000
				CHANNELS 3 Zrotation Yrotation Xrotation
				JOINT RightFoot
				{
					OFFSET -2.28681 -6.28298 0.00000
					CHANNELS 3 Zrotation Yrotation Xrotation
					JOINT RightToeBase
					{
						OFFSET -0.15927 -0.43759 1.61103
						CHANNELS 3 Zrotation Yrotation Xrotation
						End Site
						{
							OFFSET -0.00000 -0.00000 0.84630
						}
					}
				}
			}
		}
	}
	JOINT LowerBack
	{
		OFFSET 0 0 0
		CHANNELS 3 Zrotation Yrotation Xrotation
		JOINT Spine
		{
			OFFSET -0.04227 2.04338 -0.00225
			CHANNELS 3 Zrotation Yrotation Xrotation
			JOINT Spine1
			{
				OFFSET -0.02148 2.04482 -0.04273
				CHANNELS 3 Zrotation Yrotation Xrotation
				JOINT Neck
				{
					OFFSET 0 0 0
					CHANNELS 3 Zrotation Yrotation Xrotation
					JOINT Neck1
					{
						OFFSET 0.09180 1.44629 0.19359
						CHANNELS 3 Zrotation Yrotation Xrotation
						JOINT Head
						{
							OFFSET 0.00887 1.40645 0.14750
							CHANNELS 3 Zrotation Yrotation Xrotation
							End Site
							{
								OFFSET -0.00669 1.50671 0.03707
							}
						}
					}
				}
				JOINT LeftShoulder
				{
					OFFSET 0 0 0
					CHANNELS 3 Zrotation Yrotation Xrotation
					JOINT LeftArm
					{
						OFFSET 2.17674 1.86763 -0.06520
						CHANNELS 3 Zrotation Yrotation Xrotation
						JOINT LeftForeArm
						{
							OFFSET 4.65776 -0.00000 0.00000
							CHANNELS 3 Zrotation Yrotation Xrotation
							JOINT LeftHand
							{
								OFFSET 3.55539 -0.00000 0.00000
								CHANNELS 3 Zrotation Yrotation Xrotation
								JOINT LeftFingerBase
								{
									OFFSET 0 0 0
									CHANNELS 3 Zrotation Yrotation Xrotation
									JOINT LeftHandIndex1
									{
										OFFSET 0.70726 -0.00000 0.00000
										CHANNELS 3 Zrotation Yrotation Xrotation
										End Site
										{
											OFFSET 0.57022 -0.00000 0.00000
										}
									}
								}
								JOINT LThumb
								{
									OFFSET 0 0 0
									CHANNELS 3 Zrotation Yrotation Xrotation
									End Site
									{
										OFFSET 0.57892 -0.00000 0.57892
									}
								}
							}
						}
					}
				}
				JOINT RightShoulder
				{
					OFFSET 0 0 0
					CHANNELS 3 Zrotation Yrotation Xrotation
					JOINT RightArm
					{
						OFFSET -2.80694 1.55459 -0.32496
						CHANNELS 3 Zrotation Yrotation Xrotation
						JOINT RightForeArm
						{
							OFFSET -4.71925 -0.00000 -0.00000
							CHANNELS 3 Zrotation Yrotation Xrotation
							JOINT RightHand
							{
								OFFSET -3.56990 -0.00000 0.00000
								CHANNELS 3 Zrotation Yrotation Xrotation
								JOINT RightFingerBase
								{
									OFFSET 0 0 0
									CHANNELS 3 Zrotation Yrotation Xrotation
									JOINT RightHandIndex1
									{
										OFFSET -0.50776 -0.00000 0.00000
										CHANNELS 3 Zrotation Yrotation Xrotation
										End Site
										{
											OFFSET -0.40937 -0.00000 0.00000
										}
									}
								}
								JOINT RThumb
								{
									OFFSET 0 0 0
									CHANNELS 3 Zrotation Yrotation Xrotation
									End Site
									{
										OFFSET -0.41562 -0.00000 0.41562
									}
								}
							}
						}
					}
				}
			}
		}
	}
}
MOTION
Frames: 5
Frame Time: .0083333
9.6126 21.0477 17.6360 6.2612 35.2203 27.6678 0.0000 0.0000 0.0000 -10.9652 -22.2608 -46.4687 3.6300 11.6511 34.5087 0.5618 12.8666 15.0573 5.1770 -13.5804 -41.5820 0.0000 0.0000 0.0000 9.1726 23.2471 -29.8127 -1.1925 -6.9295 19.5068 0.0167 -8.7773 5.8275 -3.4847 11.4411 -33.7825 -4.8594 -2.2260 -25.6094 0.4149 -1.4886 -5.1992 2.7824 -0.7588 8.5783 -4.6182 -0.0174 1.2014 6.9193 -0.4127 8.8970 3.0902 -0.1418 2.6926 -0.0000 -0.0000 0.0000 -67.9342 -9.5269 60.9829 38.9875 -47.4585 -17.6896 -0.0000 0.0000 -2.3375 33.7979 -20.3323 -13.0935 -7.1250 0.0000 -0.0000 3.3454 5.9819 -2.9838 -0.0000 -0.0000 0.0000 83.3018 -21.0436 34.3667 -35.1733 44.9355 -14.9356 0.0000 -0.0000 -4.7035 -18.6906 -42.5585 12.8877 7.1250 -0.0000 -0.0000 29.8634 -72.1529 -19.7758
9.6115 20.9623 17.6817 6.2871 38.1846 27.5986 0.0000 0.0000 0.0000 -11.1387 -21.9185 -46.2332 3.8288 11.9290 35.4812 0.5760 13.9955 15.6252 4.9312 -13.3059 -40.5245 0.0000 0.0000 0.0000 9.3686 23.3094 -29.3541 -1.1853 -6.9093 19.4468 0.0094 -8.2856 5.6141 -3.8369 11.9402 -35.5207 -5.0691 -2.3194 -25.6024 0.4411 -1.5438 -5.1884 2.9148 -0.7850 8.5972 -4.7748 -0.0249 1.1411 6.9543 -0.4170 8.9067 3.1329 -0.1452 2.7094 0.0000 0.0000 0.0000 -66.4890 -9.2773 59.7712 38.8601 -47.3798 -17.5958 -0.0000 0.0000 -2.0393 33.8354 -20.5284 -13.2283 -7.1250 0.0000 -0.0000 3.3369 5.7489 -2.9911 0.0000 0.0000 0.0000 82.9058 -20.9575 34.3098 -34.6885 44.5884 -14.5942 0.0000 -0.0000 -4.4893 -18.0025 -42.5122 12.3853 7.1250 -0.0000 -0.0000 30.5754 -71.8765 -20.0932
9.6044 20.8701 17.7272 6.1305 41.1848 27.3968 0.0000 0.0000 0.0000 -10.9746 -21.6386 -46.0818 4.0728 12.2567 36.6462 0.6340 14.6197 16.3729 4.7483 -13.0946 -39.7235 0.0000 0.0000 0.0000 9.7490 23.4527 -29.0192 -1.2040 -6.9616 19.6018 0.0209 -7.8195 5.0192 -4.0164 12.1822 -36.3796 -5.2338 -2.4827 -25.4542 0.5293 -1.7177 -5.2339 3.0540 -0.8636 8.4929 -4.7257 -0.0009 1.0892 6.9137 -0.3754 8.8750 3.1101 -0.1216 2.7045 -0.0000 0.0000 0.0000 -64.9637 -8.9099 58.5141 38.7187 -47.2922 -17.4918 -0.0000 0.0000 -1.7432 33.9571 -20.2161 -13.1000 -7.1250 0.0000 -0.0000 3.4638 6.0772 -3.0834 -0.0000 0.0000 0.0000 82.4895 -20.9317 34.4328 -34.2818 44.2925 -14.3095 0.0000 -0.0000 -4.2998 -17.4075 -42.6839 11.9999 7.1250 -0.0000 -0.0000 31.6035 -71.8076 -20.7614
9.6185 20.7511 17.7750 6.6807 43.6905 27.5598 0.0000 0.0000 0.0000 -11.6353 -21.4958 -45.4720 4.2974 12.5460 37.6920 0.6459 15.1913 16.7042 4.5759 -12.8896 -38.9566 0.0000 0.0000 0.0000 9.5648 23.1805 -28.6367 -1.2216 -7.0103 19.7459 0.0000 -6.6879 4.6848 -4.0587 12.2382 -36.5798 -5.7027 -2.5639 -25.4559 0.2829 -1.6611 -5.1994 3.0679 -0.8407 8.5311 -4.6895 0.0502 1.1428 6.8942 -0.3016 8.8476 3.0968 -0.0833 2.6798 -0.0000 -0.0000 0.0000 -63.2197 -8.5355 57.3980 38.5076 -47.1604 -17.3368 -0.0000 0.0000 -1.6017 34.0348 -19.7279 -12.8429 -7.1250 0.0000 -0.0000 3.5915 6.6188 -3.1600 -0.0000 -0.0000 0.0000 82.3448 -20.9229 34.3397 -33.8777 43.9939 -14.0281 0.0000 -0.0000 -4.0001 -16.9827 -42.7084 11.7029 7.1250 -0.0000 -0.0000 32.1371 -71.6801 -21.0463
9.6310 20.6291 17.8231 7.0184 46.2712 27.7513 0.0000 0.0000 0.0000 -11.9755 -21.2811 -45.0613 4.5326 12.8372 38.7622 0.7127 15.6884 17.4432 4.5555 -12.8651 -38.8655 0.0000 0.0000 0.0000 9.6506 22.7898 -28.4669 -1.2286 -7.0298 19.8038 -0.0342 -5.3674 4.7429 -4.1968 12.4178 -37.2266 -6.0622 -2.6733 -25.5064 0.1706 -1.6784 -5.2798 3.1447 -0.8451 8.4737 -4.6929 0.0642 1.2066 6.8875 -0.2787 8.8271 3.0946 -0.0714 2.6595 -0.0000 0.0000 0.0000 -61.5741 -7.9339 56.3160 38.3569 -47.0657 -17.2264 -0.0000 0.0000 -1.8127 33.9912 -19.7432 -12.8318 -7.1250 0.0000 -0.0000 3.5616 6.6113 -3.1341 -0.0000 0.0000 0.0000 82.1344 -21.0030 34.1722 -33.4290 43.6572 -13.7173 0.0000 -0.0000 -3.6562 -16.0602 -42.8658 11.0807 7.1250 -0.0000 -0.0000 33.4908 -71.4858 -21.8529
